<svg xmlns="http://www.w3.org/2000/svg">
  <defs>
    <symbol id="icon-recipe-book" viewBox="0 0 512 640">
        <svg xmlns="http://www.w3.org/2000/svg" xmlns:xlink="http://www.w3.org/1999/xlink" version="1.1" x="0px" y="0px" viewBox="0 0 512 640" enable-background="new 0 0 512 512" xml:space="preserve"><metadata><?xpacket begin="&#65279;" id="W5M0MpCehiHzreSzNTczkc9d"?><x:xmpmeta xmlns:x="adobe:ns:meta/" x:xmptk="Adobe XMP Core 5.3-c011 66.145661, 2012/02/06-14:56:27        "/><?xpacket end="w"?></metadata><g><path d="M402.61,489.07H114.7c-3.866,0-7-3.134-7-7V29.93c0-3.866,3.134-7,7-7h287.91c18.538,0,33.62,15.077,33.62,33.61v398.92   C436.23,473.993,421.148,489.07,402.61,489.07z M121.7,475.07h280.91c10.818,0,19.62-8.797,19.62-19.61V56.54   c0-10.813-8.802-19.61-19.62-19.61H121.7V475.07z"/></g><g><g><path d="M321.1,263h-98.27c-3.866,0-7-3.134-7-7s3.134-7,7-7h98.27c3.866,0,7,3.134,7,7S324.966,263,321.1,263z"/></g><g><path d="M321.1,243.12c-3.866,0-7-3.134-7-7v-51.65c0-3.419,2.47-6.337,5.842-6.903c14.502-2.434,25.028-14.89,25.028-29.617    c0-16.209-12.689-29.394-28.889-30.016c-2.908-0.111-5.443-2.01-6.368-4.769c-5.446-16.243-20.618-27.156-37.753-27.156    s-32.307,10.913-37.753,27.156c-0.925,2.759-3.46,4.658-6.368,4.769c-16.193,0.622-28.878,13.806-28.878,30.016    c0,14.727,10.526,27.183,25.029,29.617c3.372,0.566,5.841,3.484,5.841,6.903v51.65c0,3.866-3.134,7-7,7s-7-3.134-7-7v-46.135    c-18.198-5.648-30.87-22.476-30.87-42.035c0-22.17,16.189-40.48,37.639-43.578c8.475-19.535,27.764-32.363,49.361-32.363    c21.598,0,40.887,12.827,49.36,32.363c21.457,3.095,37.649,21.406,37.649,43.578c0,19.559-12.672,36.387-30.87,42.035v46.135    C328.1,239.986,324.966,243.12,321.1,243.12z"/></g><g><path d="M325.648,263H218.272c-3.866,0-7-3.134-7-7v-19.876c0-3.866,3.134-7,7-7h107.376c3.866,0,7,3.134,7,7V256    C332.648,259.866,329.515,263,325.648,263z M225.272,249h93.376v-5.876h-93.376V249z"/></g></g><g><g><path d="M351.967,318.598H191.955c-3.866,0-7-3.134-7-7s3.134-7,7-7h160.012c3.866,0,7,3.134,7,7S355.833,318.598,351.967,318.598    z"/></g></g><g><g><path d="M351.967,365.606H191.954c-3.866,0-7-3.134-7-7s3.134-7,7-7h160.013c3.866,0,7,3.134,7,7S355.833,365.606,351.967,365.606    z"/></g></g><g><g><path d="M351.967,412.615H191.954c-3.866,0-7-3.134-7-7s3.134-7,7-7h160.013c3.866,0,7,3.134,7,7S355.833,412.615,351.967,412.615    z"/></g></g><g><path d="M114.697,489.068H82.774c-3.866,0-7-3.134-7-7V29.932c0-3.866,3.134-7,7-7h31.923c3.866,0,7,3.134,7,7v452.137   C121.697,485.935,118.563,489.068,114.697,489.068z M89.774,475.068h17.923V36.932H89.774V475.068z"/></g><text x="0" y="527" fill="#000000" font-size="5px" font-weight="bold" font-family="'Helvetica Neue', Helvetica, Arial-Unicode, Arial, Sans-serif">by Muhammad Nur Auliady Pamungkas</text><text x="0" y="532" fill="#000000" font-size="5px" font-weight="bold" font-family="'Helvetica Neue', Helvetica, Arial-Unicode, Arial, Sans-serif">from the Noun Project</text></svg>
    </symbol>
    <symbol id="icon-croissant" viewBox="0 0 512 640">
        <svg xmlns="http://www.w3.org/2000/svg" xmlns:xlink="http://www.w3.org/1999/xlink" version="1.1" x="0px" y="0px" viewBox="0 0 512 640" enable-background="new 0 0 512 512" xml:space="preserve"><metadata><?xpacket begin="&#65279;" id="W5M0MpCehiHzreSzNTczkc9d"?><x:xmpmeta xmlns:x="adobe:ns:meta/" x:xmptk="Adobe XMP Core 5.3-c011 66.145661, 2012/02/06-14:56:27        "/><?xpacket end="w"?></metadata><g><g><g><path d="M82.377,431.817c-16.648,0-32.94-6.592-46.164-18.743c-14.649-13.442-23.054-33.27-23.054-54.395     c0-18.722,6.654-36.395,18.736-49.763c2.726-3.014,5.021-5.513,7.227-7.865c2.645-2.821,7.075-2.964,9.895-0.318     c2.82,2.645,2.962,7.074,0.318,9.895c-2.147,2.289-4.388,4.729-7.055,7.678c-9.751,10.788-15.122,25.128-15.122,40.374     c0,17.214,6.751,33.281,18.523,44.083c11.22,10.31,25.049,15.625,38.929,15.004c12.555-0.573,24.112-6.01,32.542-15.309     c3.671-4.066,7.125-7.788,10.547-11.367c2.672-2.793,7.103-2.891,9.897-0.22c2.794,2.672,2.893,7.104,0.22,9.897     c-3.329,3.479-6.692,7.105-10.283,11.082c-10.964,12.094-25.978,19.157-42.286,19.901     C84.292,431.795,83.334,431.817,82.377,431.817z"/></g><g><path d="M430.362,242.721c-3.319,0-6.267-2.37-6.88-5.752c-0.689-3.804,1.835-7.447,5.639-8.137     c4.901-0.889,9.911-1.721,15.316-2.543c12.393-1.915,23.297-8.568,30.688-18.732c8.176-11.242,11.341-25.718,8.914-40.762     c-4.997-31.1-37.057-54.161-68.636-49.345c-3.994,0.609-7.262,1.136-10.282,1.658c-3.81,0.661-7.432-1.896-8.09-5.705     c-0.659-3.809,1.896-7.431,5.705-8.09c3.114-0.539,6.469-1.08,10.558-1.703c19.205-2.929,38.75,2.04,55.04,13.985     c15.834,11.61,26.596,28.731,29.526,46.975c3.025,18.749-1.027,36.941-11.413,51.222c-9.601,13.203-23.768,21.845-39.889,24.336     c-5.289,0.805-10.171,1.615-14.94,2.48C431.197,242.685,430.776,242.721,430.362,242.721z"/></g><g><path d="M82.377,431.817c-16.648,0-32.94-6.592-46.164-18.743c-14.649-13.442-23.054-33.27-23.054-54.395     c0-18.722,6.654-36.395,18.736-49.763c2.726-3.014,5.021-5.513,7.227-7.865c2.645-2.821,7.075-2.964,9.895-0.318     c2.82,2.645,2.962,7.074,0.318,9.895c-2.147,2.289-4.388,4.729-7.055,7.678c-9.751,10.788-15.122,25.128-15.122,40.374     c0,17.214,6.751,33.281,18.523,44.083c11.22,10.31,25.049,15.625,38.929,15.004c12.555-0.573,24.112-6.01,32.542-15.309     c3.671-4.066,7.125-7.788,10.547-11.367c2.672-2.793,7.103-2.891,9.897-0.22c2.794,2.672,2.893,7.104,0.22,9.897     c-3.329,3.479-6.692,7.105-10.283,11.082c-10.964,12.094-25.978,19.157-42.286,19.901     C84.292,431.795,83.334,431.817,82.377,431.817z"/></g><g><path d="M430.362,242.721c-3.319,0-6.267-2.37-6.88-5.752c-0.689-3.804,1.835-7.447,5.639-8.137     c4.901-0.889,9.911-1.721,15.316-2.543c12.393-1.915,23.297-8.568,30.688-18.732c8.176-11.242,11.341-25.718,8.914-40.762     c-4.997-31.1-37.057-54.161-68.636-49.345c-3.994,0.609-7.262,1.136-10.282,1.658c-3.81,0.661-7.432-1.896-8.09-5.705     c-0.659-3.809,1.896-7.431,5.705-8.09c3.114-0.539,6.469-1.08,10.558-1.703c19.205-2.929,38.75,2.04,55.04,13.985     c15.834,11.61,26.596,28.731,29.526,46.975c3.025,18.749-1.027,36.941-11.413,51.222c-9.601,13.203-23.768,21.845-39.889,24.336     c-5.289,0.805-10.171,1.615-14.94,2.48C431.197,242.685,430.776,242.721,430.362,242.721z"/></g></g><g><g><path d="M153.503,408.169c-8.043,0-16.319-2-24.004-6.045c-5.234-2.753-9.938-6.329-13.98-10.63     c-24.093-25.894-48.751-51.903-73.314-77.331c-1.238-1.259-2.44-2.642-3.531-4.064c-14.817-19.3-11.176-46.719,8.292-62.418     c20.336-16.388,41.572-32.098,63.118-46.696c3.2-2.169,7.553-1.332,9.721,1.869s1.332,7.553-1.869,9.721     c-21.227,14.382-42.149,29.861-62.184,46.005c-13.499,10.887-16.122,29.773-5.97,42.997c0.748,0.975,1.571,1.921,2.45,2.816     c24.665,25.533,49.384,51.606,73.512,77.538c2.952,3.14,6.416,5.773,10.273,7.803c12.201,6.422,26.224,5.857,35.73-1.438     c14.596-11.245,29.716-22.089,44.932-32.222c3.217-2.142,7.563-1.271,9.706,1.946s1.271,7.563-1.946,9.706     c-14.948,9.955-29.805,20.609-44.158,31.668C172.694,405.218,163.271,408.168,153.503,408.169z"/></g><g><path d="M353.623,297.271c-2.728,0-5.32-1.604-6.45-4.275c-1.506-3.561,0.16-7.668,3.721-9.174     c16.797-7.104,34.178-13.756,51.659-19.771c11.309-3.913,19.498-15.305,20.852-29.018c0.437-4.329,0.148-8.671-0.856-12.923     c-8.284-34.113-16.434-69.103-24.21-103.956c-0.28-1.289-0.619-2.498-1.016-3.634c-5.454-15.781-22.658-23.989-39.183-18.712     c-24.579,7.863-49.021,16.8-72.646,26.562c-3.572,1.475-7.666-0.224-9.143-3.796c-1.477-3.573,0.224-7.667,3.797-9.143     c23.978-9.907,48.784-18.977,73.729-26.957c23.826-7.612,48.718,4.445,56.669,27.45c0.577,1.65,1.072,3.415,1.465,5.221     c7.749,34.729,15.878,69.633,24.152,103.704c1.373,5.812,1.764,11.71,1.172,17.576c-1.887,19.117-13.748,35.162-30.216,40.861     c-17.19,5.915-34.27,12.452-50.772,19.432C355.457,297.093,354.532,297.271,353.623,297.271z"/></g><g><path d="M153.503,408.169c-8.043,0-16.319-2-24.004-6.045c-5.234-2.753-9.938-6.329-13.98-10.63     c-24.093-25.894-48.751-51.903-73.314-77.331c-1.238-1.259-2.44-2.642-3.531-4.064c-14.817-19.3-11.176-46.719,8.292-62.418     c20.336-16.388,41.572-32.098,63.118-46.696c3.2-2.169,7.553-1.332,9.721,1.869s1.332,7.553-1.869,9.721     c-21.227,14.382-42.149,29.861-62.184,46.005c-13.499,10.887-16.122,29.773-5.97,42.997c0.748,0.975,1.571,1.921,2.45,2.816     c24.665,25.533,49.384,51.606,73.512,77.538c2.952,3.14,6.416,5.773,10.273,7.803c12.201,6.422,26.224,5.857,35.73-1.438     c14.596-11.245,29.716-22.089,44.932-32.222c3.217-2.142,7.563-1.271,9.706,1.946s1.271,7.563-1.946,9.706     c-14.948,9.955-29.805,20.609-44.158,31.668C172.694,405.218,163.271,408.168,153.503,408.169z"/></g><g><path d="M353.623,297.271c-2.728,0-5.32-1.604-6.45-4.275c-1.506-3.561,0.16-7.668,3.721-9.174     c16.797-7.104,34.178-13.756,51.659-19.771c11.309-3.913,19.498-15.305,20.852-29.018c0.437-4.329,0.148-8.671-0.856-12.923     c-8.284-34.113-16.434-69.103-24.21-103.956c-0.28-1.289-0.619-2.498-1.016-3.634c-5.454-15.781-22.658-23.989-39.183-18.712     c-24.579,7.863-49.021,16.8-72.646,26.562c-3.572,1.475-7.666-0.224-9.143-3.796c-1.477-3.573,0.224-7.667,3.797-9.143     c23.978-9.907,48.784-18.977,73.729-26.957c23.826-7.612,48.718,4.445,56.669,27.45c0.577,1.65,1.072,3.415,1.465,5.221     c7.749,34.729,15.878,69.633,24.152,103.704c1.373,5.812,1.764,11.71,1.172,17.576c-1.887,19.117-13.748,35.162-30.216,40.861     c-17.19,5.915-34.27,12.452-50.772,19.432C355.457,297.093,354.532,297.271,353.623,297.271z"/></g></g><g><g><path d="M251.199,382.694c-15.437,0-30.232-7.549-38.613-19.701L111.263,216.082c-6.445-9.346-8.589-20.321-6.036-30.906     c2.552-10.583,9.462-19.375,19.457-24.754l113.563-61.131c5.856-3.152,12.33-4.819,18.723-4.819     c15.387,0,29.176,9.525,35.129,24.267l66.832,165.478c8.54,21.146-0.85,47.146-20.931,57.957l-65.509,35.263     C266.102,380.876,258.739,382.694,251.199,382.694z M256.969,108.472c-4.143,0-8.209,1.059-12.087,3.146l-113.563,61.131     c-6.443,3.468-10.876,9.047-12.482,15.709c-1.607,6.663-0.204,13.65,3.951,19.675l101.323,146.911     c5.807,8.42,16.187,13.65,27.088,13.65c5.231,0,10.3-1.24,14.656-3.586l65.509-35.262c13.756-7.405,20.436-25.901,14.585-40.388     l-66.831-165.478C275.254,114.415,266.768,108.472,256.969,108.472z"/></g><g><path d="M251.199,382.694c-15.437,0-30.232-7.549-38.613-19.701L111.263,216.082c-6.445-9.346-8.589-20.321-6.036-30.906     c2.552-10.583,9.462-19.375,19.457-24.754l113.563-61.131c5.856-3.152,12.33-4.819,18.723-4.819     c15.387,0,29.176,9.525,35.129,24.267l66.832,165.478c8.54,21.146-0.85,47.146-20.931,57.957l-65.509,35.263     C266.102,380.876,258.739,382.694,251.199,382.694z M256.969,108.472c-4.143,0-8.209,1.059-12.087,3.146l-113.563,61.131     c-6.443,3.468-10.876,9.047-12.482,15.709c-1.607,6.663-0.204,13.65,3.951,19.675l101.323,146.911     c5.807,8.42,16.187,13.65,27.088,13.65c5.231,0,10.3-1.24,14.656-3.586l65.509-35.262c13.756-7.405,20.436-25.901,14.585-40.388     l-66.831-165.478C275.254,114.415,266.768,108.472,256.969,108.472z"/></g></g></g><text x="0" y="527" fill="#000000" font-size="5px" font-weight="bold" font-family="'Helvetica Neue', Helvetica, Arial-Unicode, Arial, Sans-serif">by Muhammad Nur Auliady Pamungkas</text><text x="0" y="532" fill="#000000" font-size="5px" font-weight="bold" font-family="'Helvetica Neue', Helvetica, Arial-Unicode, Arial, Sans-serif">from the Noun Project</text></svg>    </symbol>
    <symbol id="icon-flour" viewBox="0 0 512 640">
        <svg xmlns="http://www.w3.org/2000/svg" xmlns:xlink="http://www.w3.org/1999/xlink" version="1.1" x="0px" y="0px" viewBox="0 0 512 640" enable-background="new 0 0 512 512" xml:space="preserve"><metadata><?xpacket begin="&#65279;" id="W5M0MpCehiHzreSzNTczkc9d"?><x:xmpmeta xmlns:x="adobe:ns:meta/" x:xmptk="Adobe XMP Core 5.3-c011 66.145661, 2012/02/06-14:56:27        "/><?xpacket end="w"?></metadata><g><g><path d="M477.627,194.197H34.373c-3.866,0-7-3.134-7-7v-57.139c0-3.866,3.134-7,7-7h443.254c3.866,0,7,3.134,7,7v57.139    C484.627,191.063,481.493,194.197,477.627,194.197z M41.373,180.197h429.254v-43.139H41.373V180.197z"/></g><g><path d="M438.985,137.06c-3.225,0-6.126-2.242-6.835-5.522c-4.048-18.715-14.423-21.568-33.258-26.749    c-13.373-3.678-30.017-8.256-47.805-20.532c-16.061-11.075-26.571-21.073-35.016-29.106    c-17.141-16.304-25.743-24.488-59.773-24.488c-36.283,0-45.148,7.588-64.573,24.214c-8.046,6.887-18.06,15.458-32.195,25.209    c-16.856,11.621-32.574,16.823-45.203,21.003c-19.589,6.484-30.38,10.056-34.457,30.347c-0.762,3.79-4.445,6.249-8.242,5.484    c-3.79-0.761-6.246-4.451-5.484-8.242c5.679-28.268,23.337-34.112,43.783-40.88c12.396-4.104,26.447-8.754,41.654-19.238    c13.534-9.335,22.834-17.296,31.04-24.319c20.092-17.198,32.22-27.579,73.676-27.579c39.625,0,51.479,11.276,69.422,28.344    c8.512,8.096,18.159,17.273,33.316,27.726c15.838,10.93,30.57,14.982,43.568,18.557c19.228,5.288,37.388,10.283,43.229,37.289    c0.817,3.778-1.583,7.504-5.362,8.321C439.974,137.008,439.476,137.06,438.985,137.06z"/></g><g><path d="M432.504,495.271c-10.285,0.001-21.442-4.566-30.242-13.359c-1.84-1.854-3.529-3.847-5.055-5.963    C361.499,479.958,299.59,486.11,256,486.11s-105.499-6.152-141.207-10.162c-1.523,2.113-3.208,4.102-5.035,5.942    c-15.481,15.47-38.224,17.873-50.718,5.38c-6.304-6.305-9.058-15.235-7.756-25.147c1.212-9.227,5.87-18.298,13.116-25.543    c0.028-0.027,0.055-0.054,0.083-0.081C57.224,388.094,45.73,302.458,45.73,245.6c0-16.224,0.96-36.066,2.854-58.977    c0.319-3.853,3.699-6.719,7.553-6.399c3.853,0.318,6.718,3.7,6.399,7.553c-1.862,22.528-2.806,41.983-2.806,57.823    c0,59.558,13.393,154.456,19.151,192.492c0.362,2.391-0.535,4.799-2.373,6.369c-0.818,0.699-1.551,1.37-2.238,2.049    c-5.047,5.048-8.292,11.251-9.104,17.438c-0.723,5.499,0.618,10.267,3.774,13.423c6.919,6.92,21.07,4.462,30.902-5.361    c2.07-2.087,3.903-4.467,5.426-7.052c1.393-2.364,4.104-3.713,6.835-3.402c34.557,3.942,99.204,10.556,143.896,10.556    s109.34-6.613,143.897-10.556c2.723-0.316,5.442,1.038,6.834,3.402c1.523,2.586,3.356,4.966,5.446,7.071    c9.813,9.805,23.963,12.26,30.882,5.342c3.157-3.156,4.498-7.924,3.775-13.423c-0.813-6.187-4.057-12.39-9.135-17.467    c-0.654-0.646-1.388-1.317-2.209-2.021c-1.838-1.571-2.734-3.979-2.372-6.368c5.758-38.035,19.15-132.931,19.15-192.492    c0-15.842-0.944-35.296-2.806-57.823c-0.318-3.853,2.547-7.234,6.4-7.553c3.836-0.313,7.234,2.546,7.553,6.399    c1.893,22.909,2.853,42.751,2.853,58.977c0,56.861-11.493,142.495-18.753,190.898c0.018,0.018,0.035,0.034,0.052,0.051    c15.484,15.484,17.889,38.224,5.392,50.722C447.576,492.653,440.29,495.271,432.504,495.271z"/></g><g><path d="M450.61,137.06H61.39c-3.866,0-7-3.134-7-7s3.134-7,7-7h389.22c3.866,0,7,3.134,7,7S454.477,137.06,450.61,137.06z"/></g><g><path d="M256,394.058c-45.818,0-83.094-37.275-83.094-83.094c0-45.817,37.276-83.093,83.094-83.093    c45.818,0,83.094,37.275,83.094,83.093C339.094,356.782,301.818,394.058,256,394.058z M256,241.871    c-38.099,0-69.094,30.995-69.094,69.093c0,38.099,30.995,69.094,69.094,69.094s69.094-30.995,69.094-69.094    C325.094,272.866,294.099,241.871,256,241.871z"/></g><g><path d="M256,298c-1.565,0-3.13-0.523-4.417-1.569c-1.349-1.098-13.178-11.11-13.178-24.678c0-13.566,11.829-23.58,13.178-24.677    c2.572-2.093,6.262-2.093,8.834,0c1.349,1.097,13.177,11.111,13.177,24.677c0,13.567-11.828,23.58-13.177,24.678    C259.131,297.477,257.565,298,256,298z M255.999,262.735c-1.904,2.596-3.594,5.835-3.594,9.018c0,3.182,1.688,6.419,3.594,9.017    c1.906-2.598,3.594-5.835,3.594-9.017C259.594,268.572,257.905,265.334,255.999,262.735z"/></g><g><path d="M253.292,327.219c-5.667,0-16.25-1.074-23.445-8.27c-9.595-9.596-8.309-25.04-8.131-26.77    c0.34-3.298,2.948-5.906,6.247-6.245c0.227-0.023,1.451-0.14,3.322-0.14c5.667,0,16.249,1.074,23.446,8.271    c9.594,9.595,8.31,25.038,8.131,26.768c-0.339,3.299-2.947,5.907-6.247,6.246C256.387,327.103,255.162,327.219,253.292,327.219z     M235.911,300.136c0.489,3.18,1.585,6.664,3.834,8.914c2.328,2.327,5.88,3.371,8.918,3.828c-0.489-3.18-1.585-6.663-3.834-8.912    C242.501,301.637,238.949,300.594,235.911,300.136z"/></g><g><path d="M258.705,327.22c-1.87,0-3.094-0.116-3.32-0.14c-3.299-0.339-5.907-2.947-6.247-6.247    c-0.178-1.729-1.461-17.173,8.131-26.767c7.198-7.197,17.78-8.271,23.447-8.271c1.872,0,3.097,0.116,3.322,0.14    c3.299,0.34,5.907,2.947,6.246,6.246c0.179,1.729,1.463,17.173-8.132,26.769C274.956,326.146,264.373,327.22,258.705,327.22z     M276.092,300.136c-3.039,0.457-6.593,1.501-8.923,3.83c-2.248,2.248-3.343,5.729-3.833,8.912c3.039-0.457,6.59-1.501,8.917-3.829    C274.506,306.797,275.602,303.306,276.092,300.136z"/></g><g><path d="M253.292,362.559c-5.668,0-16.251-1.074-23.447-8.272c-9.594-9.593-8.309-25.037-8.131-26.767    c0.34-3.298,2.948-5.906,6.247-6.245c0.227-0.023,1.453-0.14,3.324-0.14c5.667,0,16.248,1.074,23.444,8.271    c9.594,9.592,8.31,25.037,8.131,26.767c-0.339,3.299-2.947,5.907-6.247,6.246C256.387,362.442,255.163,362.559,253.292,362.559z     M235.911,335.476c0.489,3.18,1.584,6.662,3.834,8.911c2.329,2.329,5.881,3.373,8.919,3.831c-0.489-3.181-1.585-6.663-3.834-8.912    C242.501,336.977,238.949,335.933,235.911,335.476z"/></g><g><path d="M258.706,362.559c-1.871,0-3.095-0.116-3.321-0.14c-3.299-0.339-5.907-2.947-6.247-6.247    c-0.178-1.729-1.461-17.173,8.131-26.767c7.197-7.196,17.778-8.271,23.445-8.271c1.872,0,3.098,0.116,3.325,0.14    c3.298,0.34,5.906,2.947,6.245,6.246c0.179,1.729,1.463,17.174-8.133,26.767C274.957,361.484,264.374,362.559,258.706,362.559z     M276.088,335.476c-3.038,0.457-6.59,1.501-8.918,3.83c-2.252,2.251-3.348,5.742-3.838,8.912c3.039-0.457,6.593-1.501,8.921-3.83    C274.502,342.14,275.598,338.658,276.088,335.476z"/></g><g><path d="M256,372.889c-3.866,0-7-3.134-7-7V291c0-3.866,3.134-7,7-7s7,3.134,7,7v74.889C263,369.755,259.866,372.889,256,372.889z    "/></g></g><text x="0" y="527" fill="#000000" font-size="5px" font-weight="bold" font-family="'Helvetica Neue', Helvetica, Arial-Unicode, Arial, Sans-serif">by Muhammad Nur Auliady Pamungkas</text><text x="0" y="532" fill="#000000" font-size="5px" font-weight="bold" font-family="'Helvetica Neue', Helvetica, Arial-Unicode, Arial, Sans-serif">from the Noun Project</text></svg>    </symbol>
    <symbol id="icon-sugar" viewBox="0 0 512 640">
        <svg xmlns="http://www.w3.org/2000/svg" xmlns:xlink="http://www.w3.org/1999/xlink" version="1.1" x="0px" y="0px" viewBox="0 0 512 640" enable-background="new 0 0 512 512" xml:space="preserve"><metadata><?xpacket begin="&#65279;" id="W5M0MpCehiHzreSzNTczkc9d"?><x:xmpmeta xmlns:x="adobe:ns:meta/" x:xmptk="Adobe XMP Core 5.3-c011 66.145661, 2012/02/06-14:56:27        "/><?xpacket end="w"?></metadata><g><g><path d="M480.813,193.208H31.187c-3.866,0-7-3.134-7-7v-57.959c0-3.866,3.134-7,7-7h449.627c3.866,0,7,3.134,7,7v57.959    C487.813,190.074,484.68,193.208,480.813,193.208z M38.187,179.208h435.627v-43.959H38.187V179.208z"/></g><g><path d="M441.615,135.25c-3.225,0-6.126-2.242-6.835-5.522c-4.119-19.044-14.664-21.944-33.808-27.21    c-13.558-3.729-30.431-8.37-48.46-20.813c-16.285-11.23-26.943-21.369-35.508-29.515c-17.406-16.557-26.143-24.868-60.702-24.868    c-36.841,0-45.843,7.705-65.565,24.587c-8.16,6.984-18.315,15.677-32.65,25.565c-17.086,11.779-33.022,17.054-45.827,21.292    c-19.907,6.589-30.873,10.219-35.02,30.86c-0.761,3.79-4.448,6.249-8.242,5.484c-3.79-0.761-6.246-4.451-5.484-8.242    c5.749-28.617,23.635-34.538,44.346-41.393c12.581-4.164,26.841-8.884,42.278-19.527c13.733-9.473,23.169-17.549,31.494-24.675    c20.363-17.43,32.655-27.951,74.669-27.951c40.154,0,52.167,11.427,70.352,28.724c8.637,8.216,18.426,17.527,33.808,28.135    c16.079,11.097,31.031,15.209,44.224,18.838c19.474,5.356,37.866,10.415,43.778,37.749c0.817,3.779-1.583,7.504-5.362,8.322    C442.604,135.198,442.105,135.25,441.615,135.25z"/></g><g><path d="M435.087,498.684c-1.565,0-3.164-0.106-4.79-0.319c-9.334-1.227-18.517-5.94-25.854-13.272    c-1.89-1.904-3.612-3.938-5.156-6.083C363.063,483.074,300.203,489.32,256,489.32s-107.06-6.246-143.284-10.312    c-1.547,2.147-3.265,4.176-5.138,6.062c-7.358,7.354-16.541,12.067-25.875,13.294c-10.021,1.314-19.055-1.47-25.425-7.847    c-6.37-6.369-9.153-15.397-7.837-25.419c1.227-9.338,5.943-18.518,13.281-25.85c0.037-0.037,0.074-0.074,0.111-0.111    C54.473,390.025,42.81,303.092,42.81,245.45c0-16.396,0.974-36.521,2.894-59.815c0.317-3.853,3.695-6.717,7.551-6.401    c3.853,0.318,6.719,3.699,6.401,7.552c-1.889,22.913-2.847,42.651-2.847,58.665c0,60.369,13.582,156.678,19.421,195.283    c0.364,2.405-0.547,4.826-2.406,6.396c-0.802,0.678-1.523,1.338-2.205,2.02c-5.171,5.167-8.472,11.478-9.299,17.773    c-0.737,5.609,0.633,10.474,3.858,13.698c3.226,3.229,8.089,4.6,13.7,3.863c6.296-0.827,12.612-4.129,17.783-9.295    c2.126-2.143,3.992-4.561,5.524-7.167c1.393-2.366,4.111-3.718,6.837-3.406C145.094,468.613,210.695,475.32,256,475.32    c45.305,0,110.905-6.707,145.977-10.705c2.741-0.314,5.468,1.046,6.856,3.422c1.515,2.591,3.373,5.003,5.525,7.172    c5.15,5.146,11.466,8.447,17.762,9.274c5.61,0.735,10.474-0.634,13.697-3.86c3.228-3.228,4.598-8.092,3.861-13.701    c-0.827-6.295-4.129-12.606-9.297-17.771c-0.686-0.686-1.407-1.347-2.209-2.023c-1.857-1.569-2.768-3.99-2.403-6.395    c5.839-38.605,19.421-134.914,19.421-195.283c0-16.014-0.958-35.752-2.847-58.665c-0.317-3.853,2.549-7.234,6.401-7.552    c3.863-0.316,7.234,2.549,7.552,6.401c1.92,23.294,2.894,43.419,2.894,59.815c0,57.642-11.663,144.575-19.023,193.688    c0.038,0.038,0.075,0.075,0.113,0.112c7.335,7.331,12.052,16.511,13.279,25.849c1.316,10.021-1.468,19.05-7.841,25.422    C450.384,495.86,443.18,498.683,435.087,498.684z"/></g><g><path d="M453.41,135.25H58.59c-3.866,0-7-3.134-7-7s3.134-7,7-7h394.82c3.866,0,7,3.134,7,7S457.276,135.25,453.41,135.25z"/></g><g><g><path d="M256.001,350.531c-1.208,0-2.417-0.313-3.5-0.938l-29.072-16.783c-2.166-1.251-3.5-3.562-3.5-6.063v-33.57     c0-2.501,1.334-4.812,3.5-6.063l29.072-16.783c2.166-1.251,4.834-1.249,7,0l29.071,16.783c2.166,1.251,3.5,3.562,3.5,6.063v33.57     c0,2.501-1.334,4.812-3.5,6.063l-29.071,16.783C258.418,350.219,257.209,350.531,256.001,350.531z M233.929,322.706     l22.072,12.742l22.071-12.742V297.22l-22.071-12.742l-22.072,12.742V322.706z"/></g><g><path d="M255.995,316.964c-1.188,0-2.391-0.303-3.494-0.938l-29.072-16.785c-3.348-1.934-4.495-6.215-2.562-9.563     c1.933-3.349,6.215-4.492,9.562-2.563l29.072,16.785c3.348,1.934,4.495,6.215,2.563,9.563     C260.767,315.709,258.413,316.964,255.995,316.964z"/></g><g><path d="M256.007,316.964c-2.419,0-4.772-1.255-6.068-3.501c-1.933-3.348-0.786-7.629,2.562-9.563l29.071-16.785     c3.35-1.931,7.629-0.785,9.563,2.563c1.933,3.348,0.785,7.629-2.563,9.563l-29.071,16.785     C258.398,316.661,257.195,316.964,256.007,316.964z"/></g><g><path d="M256.001,350.531c-3.866,0-7-3.134-7-7v-33.568c0-3.866,3.134-7,7-7s7,3.134,7,7v33.568     C263.001,347.397,259.867,350.531,256.001,350.531z"/></g></g><g><path d="M256.001,383.922c-40.782,0-73.96-33.178-73.96-73.959s33.178-73.959,73.96-73.959c40.78,0,73.957,33.178,73.957,73.959    S296.781,383.922,256.001,383.922z M256.001,250.003c-33.062,0-59.96,26.898-59.96,59.959s26.898,59.959,59.96,59.959    c33.061,0,59.957-26.897,59.957-59.959S289.062,250.003,256.001,250.003z"/></g></g><text x="0" y="527" fill="#000000" font-size="5px" font-weight="bold" font-family="'Helvetica Neue', Helvetica, Arial-Unicode, Arial, Sans-serif">by Muhammad Nur Auliady Pamungkas</text><text x="0" y="532" fill="#000000" font-size="5px" font-weight="bold" font-family="'Helvetica Neue', Helvetica, Arial-Unicode, Arial, Sans-serif">from the Noun Project</text></svg>
    </symbol>
    <symbol id="icon-logo" viewBox="0 0 512 640">
      <svg xmlns="http://www.w3.org/2000/svg" xmlns:xlink="http://www.w3.org/1999/xlink" version="1.1" x="0px" y="0px" viewBox="0 0 512 640" enable-background="new 0 0 512 512" xml:space="preserve"><metadata><?xpacket begin="&#65279;" id="W5M0MpCehiHzreSzNTczkc9d"?><x:xmpmeta xmlns:x="adobe:ns:meta/" x:xmptk="Adobe XMP Core 5.3-c011 66.145661, 2012/02/06-14:56:27        "/><?xpacket end="w"?></metadata><g><g><g><path d="M485.168,431.27H23.977c-3.866,0-7-3.134-7-7V222.841c0-3.866,3.134-7,7-7h461.191c3.866,0,7,3.134,7,7V424.27     C492.168,428.136,489.034,431.27,485.168,431.27z M30.977,417.27h447.191V229.841H30.977V417.27z"/></g><g><path d="M485.17,229.84H23.98c-2.336,0-4.519-1.166-5.818-3.107c-1.299-1.941-1.544-4.403-0.653-6.563L73.27,85.06     c1.402-3.398,5.196-5.134,8.683-3.971l37.13,12.37c3.668,1.222,5.651,5.186,4.429,8.854c-1.222,3.668-5.182,5.652-8.854,4.429     L83.721,96.434L34.441,215.84h407.582L132.767,112.781c-3.668-1.222-5.65-5.187-4.428-8.854c1.222-3.668,5.188-5.652,8.854-4.428     l350.19,116.7c3.258,1.085,5.247,4.373,4.696,7.762C491.529,227.35,488.604,229.84,485.17,229.84z"/></g></g><g><path d="M129.707,141.9c-1.602,0-3.212-0.547-4.529-1.666c-2.946-2.503-3.306-6.921-0.802-9.867    c3.024-3.56,4.86-7.131,5.454-10.615c0.563-3.315,0.085-7.087-1.423-11.206c-0.917-2.499-2.089-4.773-3.203-6.648    c-1.055,0.884-2.185,1.912-3.3,3.066c-3.926,4.067-6.27,8.195-6.962,12.269c-0.265,1.548-0.299,3.232-0.103,5.01    c0.423,3.843-2.349,7.301-6.191,7.725c-3.846,0.42-7.302-2.349-7.725-6.191c-0.338-3.074-0.265-6.067,0.218-8.896    c1.173-6.897,4.771-13.508,10.694-19.643c5.557-5.75,11.309-9.08,11.551-9.219c2.906-1.667,6.586-1.042,8.778,1.492    c0.244,0.282,6.006,7.003,9.387,16.218c2.358,6.44,3.057,12.621,2.08,18.374c-1.024,6-3.913,11.829-8.587,17.33    C133.66,141.062,131.689,141.9,129.707,141.9z"/></g><g><path d="M101.273,156.1c-0.055,0-0.109,0-0.164-0.002c-4.188-0.096-8.103-0.87-11.635-2.299    c-16.583-6.696-23.185-27.034-23.458-27.897c-1.011-3.196,0.385-6.66,3.33-8.261c0.795-0.432,19.663-10.509,36.251-3.823    c2.195,0.88,4.334,2.057,6.348,3.493c4.532,3.179,8.586,7.708,12.005,13.429c1.983,3.319,0.9,7.617-2.419,9.6    c-3.32,1.982-7.617,0.9-9.6-2.419c-2.401-4.02-5.117-7.108-8.07-9.18c-1.154-0.823-2.312-1.463-3.486-1.934    c-6.127-2.47-13.453-0.959-18.456,0.709c2.618,4.93,6.963,10.944,12.803,13.303c1.963,0.794,4.219,1.226,6.709,1.283    c3.865,0.089,6.926,3.294,6.837,7.159C108.181,153.071,105.064,156.1,101.273,156.1z"/></g><g><path d="M306.23,307.809c-28.556,0-43.032-5.386-57.033-10.594c-13.43-4.997-26.115-9.716-52.15-9.716    c-26.036,0-38.722,4.719-52.151,9.716c-14,5.208-28.477,10.594-57.032,10.594c-28.553,0-43.028-5.384-57.028-10.591    c-3.082-1.146-5.993-2.229-9.089-3.271c-3.664-1.232-5.635-5.203-4.401-8.867c1.234-3.664,5.203-5.634,8.867-4.401    c3.304,1.112,6.456,2.285,9.503,3.418c13.43,4.995,26.114,9.713,52.147,9.713c26.036,0,38.721-4.719,52.15-9.716    c14-5.208,28.477-10.594,57.033-10.594c28.556,0,43.032,5.386,57.032,10.594c13.43,4.997,26.115,9.716,52.151,9.716    c26.035,0,38.721-4.719,52.151-9.715c14.003-5.209,28.481-10.595,57.043-10.595c28.559,0,43.033,5.384,57.032,10.592    c4.857,1.807,9.446,3.514,14.651,5.016c3.714,1.072,5.856,4.952,4.784,8.667c-1.071,3.713-4.952,5.859-8.667,4.784    c-5.711-1.648-10.764-3.528-15.649-5.346c-13.429-4.995-26.112-9.713-52.151-9.713c-26.042,0-38.729,4.72-52.161,9.716    C349.263,302.423,334.785,307.809,306.23,307.809z"/></g><g><path d="M485.167,383.583H23.98c-3.866,0-7-3.134-7-7s3.134-7,7-7h461.187c3.866,0,7,3.134,7,7S489.033,383.583,485.167,383.583z"/></g><g><path d="M144.144,197.52c-14.658,0-35.388-12.296-43.219-20.761c-5.396-5.833-8.198-13.417-7.889-21.357s3.691-15.284,9.523-20.68    c5.514-5.101,12.686-7.911,20.195-7.911c8.268,0,16.228,3.479,21.841,9.546c5.217,5.639,10.988,16.185,14.362,26.243    c4.757,14.181,3.95,24.75-2.334,30.562C153.496,196.054,149.298,197.52,144.144,197.52z M122.753,140.811    c-3.973,0-7.769,1.487-10.688,4.188c-3.088,2.856-4.878,6.744-5.042,10.947s1.32,8.218,4.176,11.306    c5.807,6.276,23.24,16.269,32.943,16.269c1.685,0,2.64-0.328,2.972-0.635c0.965-0.893,1.886-5.939-1.432-15.833    c-3.043-9.071-8.126-17.687-11.365-21.187C131.303,142.605,127.196,140.811,122.753,140.811z"/></g></g><text x="0" y="527" fill="#000000" font-size="5px" font-weight="bold" font-family="'Helvetica Neue', Helvetica, Arial-Unicode, Arial, Sans-serif">by Muhammad Nur Auliady Pamungkas</text><text x="0" y="532" fill="#000000" font-size="5px" font-weight="bold" font-family="'Helvetica Neue', Helvetica, Arial-Unicode, Arial, Sans-serif">from the Noun Project</text></svg>
    </symbol>
  </defs>
</svg>
