<svg xmlns="http://www.w3.org/2000/svg" xmlns:xlink="http://www.w3.org/1999/xlink" version="1.1" x="0px" y="0px" viewBox="0 0 512 640" enable-background="new 0 0 512 512" xml:space="preserve"><metadata><?xpacket begin="&#65279;" id="W5M0MpCehiHzreSzNTczkc9d"?><x:xmpmeta xmlns:x="adobe:ns:meta/" x:xmptk="Adobe XMP Core 5.3-c011 66.145661, 2012/02/06-14:56:27        "/><?xpacket end="w"?></metadata><g><g><g><path d="M485.168,431.27H23.977c-3.866,0-7-3.134-7-7V222.841c0-3.866,3.134-7,7-7h461.191c3.866,0,7,3.134,7,7V424.27     C492.168,428.136,489.034,431.27,485.168,431.27z M30.977,417.27h447.191V229.841H30.977V417.27z"/></g><g><path d="M485.17,229.84H23.98c-2.336,0-4.519-1.166-5.818-3.107c-1.299-1.941-1.544-4.403-0.653-6.563L73.27,85.06     c1.402-3.398,5.196-5.134,8.683-3.971l37.13,12.37c3.668,1.222,5.651,5.186,4.429,8.854c-1.222,3.668-5.182,5.652-8.854,4.429     L83.721,96.434L34.441,215.84h407.582L132.767,112.781c-3.668-1.222-5.65-5.187-4.428-8.854c1.222-3.668,5.188-5.652,8.854-4.428     l350.19,116.7c3.258,1.085,5.247,4.373,4.696,7.762C491.529,227.35,488.604,229.84,485.17,229.84z"/></g></g><g><path d="M129.707,141.9c-1.602,0-3.212-0.547-4.529-1.666c-2.946-2.503-3.306-6.921-0.802-9.867    c3.024-3.56,4.86-7.131,5.454-10.615c0.563-3.315,0.085-7.087-1.423-11.206c-0.917-2.499-2.089-4.773-3.203-6.648    c-1.055,0.884-2.185,1.912-3.3,3.066c-3.926,4.067-6.27,8.195-6.962,12.269c-0.265,1.548-0.299,3.232-0.103,5.01    c0.423,3.843-2.349,7.301-6.191,7.725c-3.846,0.42-7.302-2.349-7.725-6.191c-0.338-3.074-0.265-6.067,0.218-8.896    c1.173-6.897,4.771-13.508,10.694-19.643c5.557-5.75,11.309-9.08,11.551-9.219c2.906-1.667,6.586-1.042,8.778,1.492    c0.244,0.282,6.006,7.003,9.387,16.218c2.358,6.44,3.057,12.621,2.08,18.374c-1.024,6-3.913,11.829-8.587,17.33    C133.66,141.062,131.689,141.9,129.707,141.9z"/></g><g><path d="M101.273,156.1c-0.055,0-0.109,0-0.164-0.002c-4.188-0.096-8.103-0.87-11.635-2.299    c-16.583-6.696-23.185-27.034-23.458-27.897c-1.011-3.196,0.385-6.66,3.33-8.261c0.795-0.432,19.663-10.509,36.251-3.823    c2.195,0.88,4.334,2.057,6.348,3.493c4.532,3.179,8.586,7.708,12.005,13.429c1.983,3.319,0.9,7.617-2.419,9.6    c-3.32,1.982-7.617,0.9-9.6-2.419c-2.401-4.02-5.117-7.108-8.07-9.18c-1.154-0.823-2.312-1.463-3.486-1.934    c-6.127-2.47-13.453-0.959-18.456,0.709c2.618,4.93,6.963,10.944,12.803,13.303c1.963,0.794,4.219,1.226,6.709,1.283    c3.865,0.089,6.926,3.294,6.837,7.159C108.181,153.071,105.064,156.1,101.273,156.1z"/></g><g><path d="M306.23,307.809c-28.556,0-43.032-5.386-57.033-10.594c-13.43-4.997-26.115-9.716-52.15-9.716    c-26.036,0-38.722,4.719-52.151,9.716c-14,5.208-28.477,10.594-57.032,10.594c-28.553,0-43.028-5.384-57.028-10.591    c-3.082-1.146-5.993-2.229-9.089-3.271c-3.664-1.232-5.635-5.203-4.401-8.867c1.234-3.664,5.203-5.634,8.867-4.401    c3.304,1.112,6.456,2.285,9.503,3.418c13.43,4.995,26.114,9.713,52.147,9.713c26.036,0,38.721-4.719,52.15-9.716    c14-5.208,28.477-10.594,57.033-10.594c28.556,0,43.032,5.386,57.032,10.594c13.43,4.997,26.115,9.716,52.151,9.716    c26.035,0,38.721-4.719,52.151-9.715c14.003-5.209,28.481-10.595,57.043-10.595c28.559,0,43.033,5.384,57.032,10.592    c4.857,1.807,9.446,3.514,14.651,5.016c3.714,1.072,5.856,4.952,4.784,8.667c-1.071,3.713-4.952,5.859-8.667,4.784    c-5.711-1.648-10.764-3.528-15.649-5.346c-13.429-4.995-26.112-9.713-52.151-9.713c-26.042,0-38.729,4.72-52.161,9.716    C349.263,302.423,334.785,307.809,306.23,307.809z"/></g><g><path d="M485.167,383.583H23.98c-3.866,0-7-3.134-7-7s3.134-7,7-7h461.187c3.866,0,7,3.134,7,7S489.033,383.583,485.167,383.583z"/></g><g><path d="M144.144,197.52c-14.658,0-35.388-12.296-43.219-20.761c-5.396-5.833-8.198-13.417-7.889-21.357s3.691-15.284,9.523-20.68    c5.514-5.101,12.686-7.911,20.195-7.911c8.268,0,16.228,3.479,21.841,9.546c5.217,5.639,10.988,16.185,14.362,26.243    c4.757,14.181,3.95,24.75-2.334,30.562C153.496,196.054,149.298,197.52,144.144,197.52z M122.753,140.811    c-3.973,0-7.769,1.487-10.688,4.188c-3.088,2.856-4.878,6.744-5.042,10.947s1.32,8.218,4.176,11.306    c5.807,6.276,23.24,16.269,32.943,16.269c1.685,0,2.64-0.328,2.972-0.635c0.965-0.893,1.886-5.939-1.432-15.833    c-3.043-9.071-8.126-17.687-11.365-21.187C131.303,142.605,127.196,140.811,122.753,140.811z"/></g></g><text x="0" y="527" fill="#000000" font-size="5px" font-weight="bold" font-family="'Helvetica Neue', Helvetica, Arial-Unicode, Arial, Sans-serif">by Muhammad Nur Auliady Pamungkas</text><text x="0" y="532" fill="#000000" font-size="5px" font-weight="bold" font-family="'Helvetica Neue', Helvetica, Arial-Unicode, Arial, Sans-serif">from the Noun Project</text></svg>