<svg xmlns="http://www.w3.org/2000/svg" xmlns:xlink="http://www.w3.org/1999/xlink" version="1.1" x="0px" y="0px" viewBox="0 0 512 640" enable-background="new 0 0 512 512" xml:space="preserve"><metadata><?xpacket begin="&#65279;" id="W5M0MpCehiHzreSzNTczkc9d"?><x:xmpmeta xmlns:x="adobe:ns:meta/" x:xmptk="Adobe XMP Core 5.3-c011 66.145661, 2012/02/06-14:56:27        "/><?xpacket end="w"?></metadata><g><path d="M402.61,489.07H114.7c-3.866,0-7-3.134-7-7V29.93c0-3.866,3.134-7,7-7h287.91c18.538,0,33.62,15.077,33.62,33.61v398.92   C436.23,473.993,421.148,489.07,402.61,489.07z M121.7,475.07h280.91c10.818,0,19.62-8.797,19.62-19.61V56.54   c0-10.813-8.802-19.61-19.62-19.61H121.7V475.07z"/></g><g><g><path d="M321.1,263h-98.27c-3.866,0-7-3.134-7-7s3.134-7,7-7h98.27c3.866,0,7,3.134,7,7S324.966,263,321.1,263z"/></g><g><path d="M321.1,243.12c-3.866,0-7-3.134-7-7v-51.65c0-3.419,2.47-6.337,5.842-6.903c14.502-2.434,25.028-14.89,25.028-29.617    c0-16.209-12.689-29.394-28.889-30.016c-2.908-0.111-5.443-2.01-6.368-4.769c-5.446-16.243-20.618-27.156-37.753-27.156    s-32.307,10.913-37.753,27.156c-0.925,2.759-3.46,4.658-6.368,4.769c-16.193,0.622-28.878,13.806-28.878,30.016    c0,14.727,10.526,27.183,25.029,29.617c3.372,0.566,5.841,3.484,5.841,6.903v51.65c0,3.866-3.134,7-7,7s-7-3.134-7-7v-46.135    c-18.198-5.648-30.87-22.476-30.87-42.035c0-22.17,16.189-40.48,37.639-43.578c8.475-19.535,27.764-32.363,49.361-32.363    c21.598,0,40.887,12.827,49.36,32.363c21.457,3.095,37.649,21.406,37.649,43.578c0,19.559-12.672,36.387-30.87,42.035v46.135    C328.1,239.986,324.966,243.12,321.1,243.12z"/></g><g><path d="M325.648,263H218.272c-3.866,0-7-3.134-7-7v-19.876c0-3.866,3.134-7,7-7h107.376c3.866,0,7,3.134,7,7V256    C332.648,259.866,329.515,263,325.648,263z M225.272,249h93.376v-5.876h-93.376V249z"/></g></g><g><g><path d="M351.967,318.598H191.955c-3.866,0-7-3.134-7-7s3.134-7,7-7h160.012c3.866,0,7,3.134,7,7S355.833,318.598,351.967,318.598    z"/></g></g><g><g><path d="M351.967,365.606H191.954c-3.866,0-7-3.134-7-7s3.134-7,7-7h160.013c3.866,0,7,3.134,7,7S355.833,365.606,351.967,365.606    z"/></g></g><g><g><path d="M351.967,412.615H191.954c-3.866,0-7-3.134-7-7s3.134-7,7-7h160.013c3.866,0,7,3.134,7,7S355.833,412.615,351.967,412.615    z"/></g></g><g><path d="M114.697,489.068H82.774c-3.866,0-7-3.134-7-7V29.932c0-3.866,3.134-7,7-7h31.923c3.866,0,7,3.134,7,7v452.137   C121.697,485.935,118.563,489.068,114.697,489.068z M89.774,475.068h17.923V36.932H89.774V475.068z"/></g><text x="0" y="527" fill="#000000" font-size="5px" font-weight="bold" font-family="'Helvetica Neue', Helvetica, Arial-Unicode, Arial, Sans-serif">by Muhammad Nur Auliady Pamungkas</text><text x="0" y="532" fill="#000000" font-size="5px" font-weight="bold" font-family="'Helvetica Neue', Helvetica, Arial-Unicode, Arial, Sans-serif">from the Noun Project</text></svg>