<svg xmlns="http://www.w3.org/2000/svg" xmlns:xlink="http://www.w3.org/1999/xlink" version="1.1" x="0px" y="0px" viewBox="0 0 512 640" enable-background="new 0 0 512 512" xml:space="preserve"><metadata><?xpacket begin="&#65279;" id="W5M0MpCehiHzreSzNTczkc9d"?><x:xmpmeta xmlns:x="adobe:ns:meta/" x:xmptk="Adobe XMP Core 5.3-c011 66.145661, 2012/02/06-14:56:27        "/><?xpacket end="w"?></metadata><g><g><path d="M480.813,193.208H31.187c-3.866,0-7-3.134-7-7v-57.959c0-3.866,3.134-7,7-7h449.627c3.866,0,7,3.134,7,7v57.959    C487.813,190.074,484.68,193.208,480.813,193.208z M38.187,179.208h435.627v-43.959H38.187V179.208z"/></g><g><path d="M441.615,135.25c-3.225,0-6.126-2.242-6.835-5.522c-4.119-19.044-14.664-21.944-33.808-27.21    c-13.558-3.729-30.431-8.37-48.46-20.813c-16.285-11.23-26.943-21.369-35.508-29.515c-17.406-16.557-26.143-24.868-60.702-24.868    c-36.841,0-45.843,7.705-65.565,24.587c-8.16,6.984-18.315,15.677-32.65,25.565c-17.086,11.779-33.022,17.054-45.827,21.292    c-19.907,6.589-30.873,10.219-35.02,30.86c-0.761,3.79-4.448,6.249-8.242,5.484c-3.79-0.761-6.246-4.451-5.484-8.242    c5.749-28.617,23.635-34.538,44.346-41.393c12.581-4.164,26.841-8.884,42.278-19.527c13.733-9.473,23.169-17.549,31.494-24.675    c20.363-17.43,32.655-27.951,74.669-27.951c40.154,0,52.167,11.427,70.352,28.724c8.637,8.216,18.426,17.527,33.808,28.135    c16.079,11.097,31.031,15.209,44.224,18.838c19.474,5.356,37.866,10.415,43.778,37.749c0.817,3.779-1.583,7.504-5.362,8.322    C442.604,135.198,442.105,135.25,441.615,135.25z"/></g><g><path d="M435.087,498.684c-1.565,0-3.164-0.106-4.79-0.319c-9.334-1.227-18.517-5.94-25.854-13.272    c-1.89-1.904-3.612-3.938-5.156-6.083C363.063,483.074,300.203,489.32,256,489.32s-107.06-6.246-143.284-10.312    c-1.547,2.147-3.265,4.176-5.138,6.062c-7.358,7.354-16.541,12.067-25.875,13.294c-10.021,1.314-19.055-1.47-25.425-7.847    c-6.37-6.369-9.153-15.397-7.837-25.419c1.227-9.338,5.943-18.518,13.281-25.85c0.037-0.037,0.074-0.074,0.111-0.111    C54.473,390.025,42.81,303.092,42.81,245.45c0-16.396,0.974-36.521,2.894-59.815c0.317-3.853,3.695-6.717,7.551-6.401    c3.853,0.318,6.719,3.699,6.401,7.552c-1.889,22.913-2.847,42.651-2.847,58.665c0,60.369,13.582,156.678,19.421,195.283    c0.364,2.405-0.547,4.826-2.406,6.396c-0.802,0.678-1.523,1.338-2.205,2.02c-5.171,5.167-8.472,11.478-9.299,17.773    c-0.737,5.609,0.633,10.474,3.858,13.698c3.226,3.229,8.089,4.6,13.7,3.863c6.296-0.827,12.612-4.129,17.783-9.295    c2.126-2.143,3.992-4.561,5.524-7.167c1.393-2.366,4.111-3.718,6.837-3.406C145.094,468.613,210.695,475.32,256,475.32    c45.305,0,110.905-6.707,145.977-10.705c2.741-0.314,5.468,1.046,6.856,3.422c1.515,2.591,3.373,5.003,5.525,7.172    c5.15,5.146,11.466,8.447,17.762,9.274c5.61,0.735,10.474-0.634,13.697-3.86c3.228-3.228,4.598-8.092,3.861-13.701    c-0.827-6.295-4.129-12.606-9.297-17.771c-0.686-0.686-1.407-1.347-2.209-2.023c-1.857-1.569-2.768-3.99-2.403-6.395    c5.839-38.605,19.421-134.914,19.421-195.283c0-16.014-0.958-35.752-2.847-58.665c-0.317-3.853,2.549-7.234,6.401-7.552    c3.863-0.316,7.234,2.549,7.552,6.401c1.92,23.294,2.894,43.419,2.894,59.815c0,57.642-11.663,144.575-19.023,193.688    c0.038,0.038,0.075,0.075,0.113,0.112c7.335,7.331,12.052,16.511,13.279,25.849c1.316,10.021-1.468,19.05-7.841,25.422    C450.384,495.86,443.18,498.683,435.087,498.684z"/></g><g><path d="M453.41,135.25H58.59c-3.866,0-7-3.134-7-7s3.134-7,7-7h394.82c3.866,0,7,3.134,7,7S457.276,135.25,453.41,135.25z"/></g><g><g><path d="M256.001,350.531c-1.208,0-2.417-0.313-3.5-0.938l-29.072-16.783c-2.166-1.251-3.5-3.562-3.5-6.063v-33.57     c0-2.501,1.334-4.812,3.5-6.063l29.072-16.783c2.166-1.251,4.834-1.249,7,0l29.071,16.783c2.166,1.251,3.5,3.562,3.5,6.063v33.57     c0,2.501-1.334,4.812-3.5,6.063l-29.071,16.783C258.418,350.219,257.209,350.531,256.001,350.531z M233.929,322.706     l22.072,12.742l22.071-12.742V297.22l-22.071-12.742l-22.072,12.742V322.706z"/></g><g><path d="M255.995,316.964c-1.188,0-2.391-0.303-3.494-0.938l-29.072-16.785c-3.348-1.934-4.495-6.215-2.562-9.563     c1.933-3.349,6.215-4.492,9.562-2.563l29.072,16.785c3.348,1.934,4.495,6.215,2.563,9.563     C260.767,315.709,258.413,316.964,255.995,316.964z"/></g><g><path d="M256.007,316.964c-2.419,0-4.772-1.255-6.068-3.501c-1.933-3.348-0.786-7.629,2.562-9.563l29.071-16.785     c3.35-1.931,7.629-0.785,9.563,2.563c1.933,3.348,0.785,7.629-2.563,9.563l-29.071,16.785     C258.398,316.661,257.195,316.964,256.007,316.964z"/></g><g><path d="M256.001,350.531c-3.866,0-7-3.134-7-7v-33.568c0-3.866,3.134-7,7-7s7,3.134,7,7v33.568     C263.001,347.397,259.867,350.531,256.001,350.531z"/></g></g><g><path d="M256.001,383.922c-40.782,0-73.96-33.178-73.96-73.959s33.178-73.959,73.96-73.959c40.78,0,73.957,33.178,73.957,73.959    S296.781,383.922,256.001,383.922z M256.001,250.003c-33.062,0-59.96,26.898-59.96,59.959s26.898,59.959,59.96,59.959    c33.061,0,59.957-26.897,59.957-59.959S289.062,250.003,256.001,250.003z"/></g></g><text x="0" y="527" fill="#000000" font-size="5px" font-weight="bold" font-family="'Helvetica Neue', Helvetica, Arial-Unicode, Arial, Sans-serif">by Muhammad Nur Auliady Pamungkas</text><text x="0" y="532" fill="#000000" font-size="5px" font-weight="bold" font-family="'Helvetica Neue', Helvetica, Arial-Unicode, Arial, Sans-serif">from the Noun Project</text></svg>