<svg xmlns="http://www.w3.org/2000/svg" xmlns:xlink="http://www.w3.org/1999/xlink" version="1.1" x="0px" y="0px" viewBox="0 0 512 640" enable-background="new 0 0 512 512" xml:space="preserve"><metadata><?xpacket begin="&#65279;" id="W5M0MpCehiHzreSzNTczkc9d"?><x:xmpmeta xmlns:x="adobe:ns:meta/" x:xmptk="Adobe XMP Core 5.3-c011 66.145661, 2012/02/06-14:56:27        "/><?xpacket end="w"?></metadata><g><g><path d="M477.627,194.197H34.373c-3.866,0-7-3.134-7-7v-57.139c0-3.866,3.134-7,7-7h443.254c3.866,0,7,3.134,7,7v57.139    C484.627,191.063,481.493,194.197,477.627,194.197z M41.373,180.197h429.254v-43.139H41.373V180.197z"/></g><g><path d="M438.985,137.06c-3.225,0-6.126-2.242-6.835-5.522c-4.048-18.715-14.423-21.568-33.258-26.749    c-13.373-3.678-30.017-8.256-47.805-20.532c-16.061-11.075-26.571-21.073-35.016-29.106    c-17.141-16.304-25.743-24.488-59.773-24.488c-36.283,0-45.148,7.588-64.573,24.214c-8.046,6.887-18.06,15.458-32.195,25.209    c-16.856,11.621-32.574,16.823-45.203,21.003c-19.589,6.484-30.38,10.056-34.457,30.347c-0.762,3.79-4.445,6.249-8.242,5.484    c-3.79-0.761-6.246-4.451-5.484-8.242c5.679-28.268,23.337-34.112,43.783-40.88c12.396-4.104,26.447-8.754,41.654-19.238    c13.534-9.335,22.834-17.296,31.04-24.319c20.092-17.198,32.22-27.579,73.676-27.579c39.625,0,51.479,11.276,69.422,28.344    c8.512,8.096,18.159,17.273,33.316,27.726c15.838,10.93,30.57,14.982,43.568,18.557c19.228,5.288,37.388,10.283,43.229,37.289    c0.817,3.778-1.583,7.504-5.362,8.321C439.974,137.008,439.476,137.06,438.985,137.06z"/></g><g><path d="M432.504,495.271c-10.285,0.001-21.442-4.566-30.242-13.359c-1.84-1.854-3.529-3.847-5.055-5.963    C361.499,479.958,299.59,486.11,256,486.11s-105.499-6.152-141.207-10.162c-1.523,2.113-3.208,4.102-5.035,5.942    c-15.481,15.47-38.224,17.873-50.718,5.38c-6.304-6.305-9.058-15.235-7.756-25.147c1.212-9.227,5.87-18.298,13.116-25.543    c0.028-0.027,0.055-0.054,0.083-0.081C57.224,388.094,45.73,302.458,45.73,245.6c0-16.224,0.96-36.066,2.854-58.977    c0.319-3.853,3.699-6.719,7.553-6.399c3.853,0.318,6.718,3.7,6.399,7.553c-1.862,22.528-2.806,41.983-2.806,57.823    c0,59.558,13.393,154.456,19.151,192.492c0.362,2.391-0.535,4.799-2.373,6.369c-0.818,0.699-1.551,1.37-2.238,2.049    c-5.047,5.048-8.292,11.251-9.104,17.438c-0.723,5.499,0.618,10.267,3.774,13.423c6.919,6.92,21.07,4.462,30.902-5.361    c2.07-2.087,3.903-4.467,5.426-7.052c1.393-2.364,4.104-3.713,6.835-3.402c34.557,3.942,99.204,10.556,143.896,10.556    s109.34-6.613,143.897-10.556c2.723-0.316,5.442,1.038,6.834,3.402c1.523,2.586,3.356,4.966,5.446,7.071    c9.813,9.805,23.963,12.26,30.882,5.342c3.157-3.156,4.498-7.924,3.775-13.423c-0.813-6.187-4.057-12.39-9.135-17.467    c-0.654-0.646-1.388-1.317-2.209-2.021c-1.838-1.571-2.734-3.979-2.372-6.368c5.758-38.035,19.15-132.931,19.15-192.492    c0-15.842-0.944-35.296-2.806-57.823c-0.318-3.853,2.547-7.234,6.4-7.553c3.836-0.313,7.234,2.546,7.553,6.399    c1.893,22.909,2.853,42.751,2.853,58.977c0,56.861-11.493,142.495-18.753,190.898c0.018,0.018,0.035,0.034,0.052,0.051    c15.484,15.484,17.889,38.224,5.392,50.722C447.576,492.653,440.29,495.271,432.504,495.271z"/></g><g><path d="M450.61,137.06H61.39c-3.866,0-7-3.134-7-7s3.134-7,7-7h389.22c3.866,0,7,3.134,7,7S454.477,137.06,450.61,137.06z"/></g><g><path d="M256,394.058c-45.818,0-83.094-37.275-83.094-83.094c0-45.817,37.276-83.093,83.094-83.093    c45.818,0,83.094,37.275,83.094,83.093C339.094,356.782,301.818,394.058,256,394.058z M256,241.871    c-38.099,0-69.094,30.995-69.094,69.093c0,38.099,30.995,69.094,69.094,69.094s69.094-30.995,69.094-69.094    C325.094,272.866,294.099,241.871,256,241.871z"/></g><g><path d="M256,298c-1.565,0-3.13-0.523-4.417-1.569c-1.349-1.098-13.178-11.11-13.178-24.678c0-13.566,11.829-23.58,13.178-24.677    c2.572-2.093,6.262-2.093,8.834,0c1.349,1.097,13.177,11.111,13.177,24.677c0,13.567-11.828,23.58-13.177,24.678    C259.131,297.477,257.565,298,256,298z M255.999,262.735c-1.904,2.596-3.594,5.835-3.594,9.018c0,3.182,1.688,6.419,3.594,9.017    c1.906-2.598,3.594-5.835,3.594-9.017C259.594,268.572,257.905,265.334,255.999,262.735z"/></g><g><path d="M253.292,327.219c-5.667,0-16.25-1.074-23.445-8.27c-9.595-9.596-8.309-25.04-8.131-26.77    c0.34-3.298,2.948-5.906,6.247-6.245c0.227-0.023,1.451-0.14,3.322-0.14c5.667,0,16.249,1.074,23.446,8.271    c9.594,9.595,8.31,25.038,8.131,26.768c-0.339,3.299-2.947,5.907-6.247,6.246C256.387,327.103,255.162,327.219,253.292,327.219z     M235.911,300.136c0.489,3.18,1.585,6.664,3.834,8.914c2.328,2.327,5.88,3.371,8.918,3.828c-0.489-3.18-1.585-6.663-3.834-8.912    C242.501,301.637,238.949,300.594,235.911,300.136z"/></g><g><path d="M258.705,327.22c-1.87,0-3.094-0.116-3.32-0.14c-3.299-0.339-5.907-2.947-6.247-6.247    c-0.178-1.729-1.461-17.173,8.131-26.767c7.198-7.197,17.78-8.271,23.447-8.271c1.872,0,3.097,0.116,3.322,0.14    c3.299,0.34,5.907,2.947,6.246,6.246c0.179,1.729,1.463,17.173-8.132,26.769C274.956,326.146,264.373,327.22,258.705,327.22z     M276.092,300.136c-3.039,0.457-6.593,1.501-8.923,3.83c-2.248,2.248-3.343,5.729-3.833,8.912c3.039-0.457,6.59-1.501,8.917-3.829    C274.506,306.797,275.602,303.306,276.092,300.136z"/></g><g><path d="M253.292,362.559c-5.668,0-16.251-1.074-23.447-8.272c-9.594-9.593-8.309-25.037-8.131-26.767    c0.34-3.298,2.948-5.906,6.247-6.245c0.227-0.023,1.453-0.14,3.324-0.14c5.667,0,16.248,1.074,23.444,8.271    c9.594,9.592,8.31,25.037,8.131,26.767c-0.339,3.299-2.947,5.907-6.247,6.246C256.387,362.442,255.163,362.559,253.292,362.559z     M235.911,335.476c0.489,3.18,1.584,6.662,3.834,8.911c2.329,2.329,5.881,3.373,8.919,3.831c-0.489-3.181-1.585-6.663-3.834-8.912    C242.501,336.977,238.949,335.933,235.911,335.476z"/></g><g><path d="M258.706,362.559c-1.871,0-3.095-0.116-3.321-0.14c-3.299-0.339-5.907-2.947-6.247-6.247    c-0.178-1.729-1.461-17.173,8.131-26.767c7.197-7.196,17.778-8.271,23.445-8.271c1.872,0,3.098,0.116,3.325,0.14    c3.298,0.34,5.906,2.947,6.245,6.246c0.179,1.729,1.463,17.174-8.133,26.767C274.957,361.484,264.374,362.559,258.706,362.559z     M276.088,335.476c-3.038,0.457-6.59,1.501-8.918,3.83c-2.252,2.251-3.348,5.742-3.838,8.912c3.039-0.457,6.593-1.501,8.921-3.83    C274.502,342.14,275.598,338.658,276.088,335.476z"/></g><g><path d="M256,372.889c-3.866,0-7-3.134-7-7V291c0-3.866,3.134-7,7-7s7,3.134,7,7v74.889C263,369.755,259.866,372.889,256,372.889z    "/></g></g><text x="0" y="527" fill="#000000" font-size="5px" font-weight="bold" font-family="'Helvetica Neue', Helvetica, Arial-Unicode, Arial, Sans-serif">by Muhammad Nur Auliady Pamungkas</text><text x="0" y="532" fill="#000000" font-size="5px" font-weight="bold" font-family="'Helvetica Neue', Helvetica, Arial-Unicode, Arial, Sans-serif">from the Noun Project</text></svg>