<svg xmlns="http://www.w3.org/2000/svg" xmlns:xlink="http://www.w3.org/1999/xlink" version="1.1" x="0px" y="0px" viewBox="0 0 512 640" enable-background="new 0 0 512 512" xml:space="preserve"><metadata><?xpacket begin="&#65279;" id="W5M0MpCehiHzreSzNTczkc9d"?><x:xmpmeta xmlns:x="adobe:ns:meta/" x:xmptk="Adobe XMP Core 5.3-c011 66.145661, 2012/02/06-14:56:27        "/><?xpacket end="w"?></metadata><g><g><g><path d="M82.377,431.817c-16.648,0-32.94-6.592-46.164-18.743c-14.649-13.442-23.054-33.27-23.054-54.395     c0-18.722,6.654-36.395,18.736-49.763c2.726-3.014,5.021-5.513,7.227-7.865c2.645-2.821,7.075-2.964,9.895-0.318     c2.82,2.645,2.962,7.074,0.318,9.895c-2.147,2.289-4.388,4.729-7.055,7.678c-9.751,10.788-15.122,25.128-15.122,40.374     c0,17.214,6.751,33.281,18.523,44.083c11.22,10.31,25.049,15.625,38.929,15.004c12.555-0.573,24.112-6.01,32.542-15.309     c3.671-4.066,7.125-7.788,10.547-11.367c2.672-2.793,7.103-2.891,9.897-0.22c2.794,2.672,2.893,7.104,0.22,9.897     c-3.329,3.479-6.692,7.105-10.283,11.082c-10.964,12.094-25.978,19.157-42.286,19.901     C84.292,431.795,83.334,431.817,82.377,431.817z"/></g><g><path d="M430.362,242.721c-3.319,0-6.267-2.37-6.88-5.752c-0.689-3.804,1.835-7.447,5.639-8.137     c4.901-0.889,9.911-1.721,15.316-2.543c12.393-1.915,23.297-8.568,30.688-18.732c8.176-11.242,11.341-25.718,8.914-40.762     c-4.997-31.1-37.057-54.161-68.636-49.345c-3.994,0.609-7.262,1.136-10.282,1.658c-3.81,0.661-7.432-1.896-8.09-5.705     c-0.659-3.809,1.896-7.431,5.705-8.09c3.114-0.539,6.469-1.08,10.558-1.703c19.205-2.929,38.75,2.04,55.04,13.985     c15.834,11.61,26.596,28.731,29.526,46.975c3.025,18.749-1.027,36.941-11.413,51.222c-9.601,13.203-23.768,21.845-39.889,24.336     c-5.289,0.805-10.171,1.615-14.94,2.48C431.197,242.685,430.776,242.721,430.362,242.721z"/></g><g><path d="M82.377,431.817c-16.648,0-32.94-6.592-46.164-18.743c-14.649-13.442-23.054-33.27-23.054-54.395     c0-18.722,6.654-36.395,18.736-49.763c2.726-3.014,5.021-5.513,7.227-7.865c2.645-2.821,7.075-2.964,9.895-0.318     c2.82,2.645,2.962,7.074,0.318,9.895c-2.147,2.289-4.388,4.729-7.055,7.678c-9.751,10.788-15.122,25.128-15.122,40.374     c0,17.214,6.751,33.281,18.523,44.083c11.22,10.31,25.049,15.625,38.929,15.004c12.555-0.573,24.112-6.01,32.542-15.309     c3.671-4.066,7.125-7.788,10.547-11.367c2.672-2.793,7.103-2.891,9.897-0.22c2.794,2.672,2.893,7.104,0.22,9.897     c-3.329,3.479-6.692,7.105-10.283,11.082c-10.964,12.094-25.978,19.157-42.286,19.901     C84.292,431.795,83.334,431.817,82.377,431.817z"/></g><g><path d="M430.362,242.721c-3.319,0-6.267-2.37-6.88-5.752c-0.689-3.804,1.835-7.447,5.639-8.137     c4.901-0.889,9.911-1.721,15.316-2.543c12.393-1.915,23.297-8.568,30.688-18.732c8.176-11.242,11.341-25.718,8.914-40.762     c-4.997-31.1-37.057-54.161-68.636-49.345c-3.994,0.609-7.262,1.136-10.282,1.658c-3.81,0.661-7.432-1.896-8.09-5.705     c-0.659-3.809,1.896-7.431,5.705-8.09c3.114-0.539,6.469-1.08,10.558-1.703c19.205-2.929,38.75,2.04,55.04,13.985     c15.834,11.61,26.596,28.731,29.526,46.975c3.025,18.749-1.027,36.941-11.413,51.222c-9.601,13.203-23.768,21.845-39.889,24.336     c-5.289,0.805-10.171,1.615-14.94,2.48C431.197,242.685,430.776,242.721,430.362,242.721z"/></g></g><g><g><path d="M153.503,408.169c-8.043,0-16.319-2-24.004-6.045c-5.234-2.753-9.938-6.329-13.98-10.63     c-24.093-25.894-48.751-51.903-73.314-77.331c-1.238-1.259-2.44-2.642-3.531-4.064c-14.817-19.3-11.176-46.719,8.292-62.418     c20.336-16.388,41.572-32.098,63.118-46.696c3.2-2.169,7.553-1.332,9.721,1.869s1.332,7.553-1.869,9.721     c-21.227,14.382-42.149,29.861-62.184,46.005c-13.499,10.887-16.122,29.773-5.97,42.997c0.748,0.975,1.571,1.921,2.45,2.816     c24.665,25.533,49.384,51.606,73.512,77.538c2.952,3.14,6.416,5.773,10.273,7.803c12.201,6.422,26.224,5.857,35.73-1.438     c14.596-11.245,29.716-22.089,44.932-32.222c3.217-2.142,7.563-1.271,9.706,1.946s1.271,7.563-1.946,9.706     c-14.948,9.955-29.805,20.609-44.158,31.668C172.694,405.218,163.271,408.168,153.503,408.169z"/></g><g><path d="M353.623,297.271c-2.728,0-5.32-1.604-6.45-4.275c-1.506-3.561,0.16-7.668,3.721-9.174     c16.797-7.104,34.178-13.756,51.659-19.771c11.309-3.913,19.498-15.305,20.852-29.018c0.437-4.329,0.148-8.671-0.856-12.923     c-8.284-34.113-16.434-69.103-24.21-103.956c-0.28-1.289-0.619-2.498-1.016-3.634c-5.454-15.781-22.658-23.989-39.183-18.712     c-24.579,7.863-49.021,16.8-72.646,26.562c-3.572,1.475-7.666-0.224-9.143-3.796c-1.477-3.573,0.224-7.667,3.797-9.143     c23.978-9.907,48.784-18.977,73.729-26.957c23.826-7.612,48.718,4.445,56.669,27.45c0.577,1.65,1.072,3.415,1.465,5.221     c7.749,34.729,15.878,69.633,24.152,103.704c1.373,5.812,1.764,11.71,1.172,17.576c-1.887,19.117-13.748,35.162-30.216,40.861     c-17.19,5.915-34.27,12.452-50.772,19.432C355.457,297.093,354.532,297.271,353.623,297.271z"/></g><g><path d="M153.503,408.169c-8.043,0-16.319-2-24.004-6.045c-5.234-2.753-9.938-6.329-13.98-10.63     c-24.093-25.894-48.751-51.903-73.314-77.331c-1.238-1.259-2.44-2.642-3.531-4.064c-14.817-19.3-11.176-46.719,8.292-62.418     c20.336-16.388,41.572-32.098,63.118-46.696c3.2-2.169,7.553-1.332,9.721,1.869s1.332,7.553-1.869,9.721     c-21.227,14.382-42.149,29.861-62.184,46.005c-13.499,10.887-16.122,29.773-5.97,42.997c0.748,0.975,1.571,1.921,2.45,2.816     c24.665,25.533,49.384,51.606,73.512,77.538c2.952,3.14,6.416,5.773,10.273,7.803c12.201,6.422,26.224,5.857,35.73-1.438     c14.596-11.245,29.716-22.089,44.932-32.222c3.217-2.142,7.563-1.271,9.706,1.946s1.271,7.563-1.946,9.706     c-14.948,9.955-29.805,20.609-44.158,31.668C172.694,405.218,163.271,408.168,153.503,408.169z"/></g><g><path d="M353.623,297.271c-2.728,0-5.32-1.604-6.45-4.275c-1.506-3.561,0.16-7.668,3.721-9.174     c16.797-7.104,34.178-13.756,51.659-19.771c11.309-3.913,19.498-15.305,20.852-29.018c0.437-4.329,0.148-8.671-0.856-12.923     c-8.284-34.113-16.434-69.103-24.21-103.956c-0.28-1.289-0.619-2.498-1.016-3.634c-5.454-15.781-22.658-23.989-39.183-18.712     c-24.579,7.863-49.021,16.8-72.646,26.562c-3.572,1.475-7.666-0.224-9.143-3.796c-1.477-3.573,0.224-7.667,3.797-9.143     c23.978-9.907,48.784-18.977,73.729-26.957c23.826-7.612,48.718,4.445,56.669,27.45c0.577,1.65,1.072,3.415,1.465,5.221     c7.749,34.729,15.878,69.633,24.152,103.704c1.373,5.812,1.764,11.71,1.172,17.576c-1.887,19.117-13.748,35.162-30.216,40.861     c-17.19,5.915-34.27,12.452-50.772,19.432C355.457,297.093,354.532,297.271,353.623,297.271z"/></g></g><g><g><path d="M251.199,382.694c-15.437,0-30.232-7.549-38.613-19.701L111.263,216.082c-6.445-9.346-8.589-20.321-6.036-30.906     c2.552-10.583,9.462-19.375,19.457-24.754l113.563-61.131c5.856-3.152,12.33-4.819,18.723-4.819     c15.387,0,29.176,9.525,35.129,24.267l66.832,165.478c8.54,21.146-0.85,47.146-20.931,57.957l-65.509,35.263     C266.102,380.876,258.739,382.694,251.199,382.694z M256.969,108.472c-4.143,0-8.209,1.059-12.087,3.146l-113.563,61.131     c-6.443,3.468-10.876,9.047-12.482,15.709c-1.607,6.663-0.204,13.65,3.951,19.675l101.323,146.911     c5.807,8.42,16.187,13.65,27.088,13.65c5.231,0,10.3-1.24,14.656-3.586l65.509-35.262c13.756-7.405,20.436-25.901,14.585-40.388     l-66.831-165.478C275.254,114.415,266.768,108.472,256.969,108.472z"/></g><g><path d="M251.199,382.694c-15.437,0-30.232-7.549-38.613-19.701L111.263,216.082c-6.445-9.346-8.589-20.321-6.036-30.906     c2.552-10.583,9.462-19.375,19.457-24.754l113.563-61.131c5.856-3.152,12.33-4.819,18.723-4.819     c15.387,0,29.176,9.525,35.129,24.267l66.832,165.478c8.54,21.146-0.85,47.146-20.931,57.957l-65.509,35.263     C266.102,380.876,258.739,382.694,251.199,382.694z M256.969,108.472c-4.143,0-8.209,1.059-12.087,3.146l-113.563,61.131     c-6.443,3.468-10.876,9.047-12.482,15.709c-1.607,6.663-0.204,13.65,3.951,19.675l101.323,146.911     c5.807,8.42,16.187,13.65,27.088,13.65c5.231,0,10.3-1.24,14.656-3.586l65.509-35.262c13.756-7.405,20.436-25.901,14.585-40.388     l-66.831-165.478C275.254,114.415,266.768,108.472,256.969,108.472z"/></g></g></g><text x="0" y="527" fill="#000000" font-size="5px" font-weight="bold" font-family="'Helvetica Neue', Helvetica, Arial-Unicode, Arial, Sans-serif">by Muhammad Nur Auliady Pamungkas</text><text x="0" y="532" fill="#000000" font-size="5px" font-weight="bold" font-family="'Helvetica Neue', Helvetica, Arial-Unicode, Arial, Sans-serif">from the Noun Project</text></svg>